<?xml version="1.0" encoding="UTF-8"?>
<svg xmlns="http://www.w3.org/2000/svg" width="266" height="44" viewBox="0 0 266 44" fill="none">
  <g clip-path="url(#clip0)">
    <path d="M9.00879 30.7518C9.00879 27.9323 11.298 25.6467 14.1218 25.6467V35.7353C14.1218 38.5547 11.8326 40.8403 9.00879 40.8403V30.7518Z" fill="black"></path>
    <path d="M5.11304 30.2657C5.11304 27.4462 2.82386 25.1606 0 25.1606V35.7354C0 38.5548 2.28918 40.8404 5.11304 40.8404V30.2657Z" fill="#1458E4"></path>
    <path d="M249.072 38.9806C249.072 39.406 248.926 39.7524 248.634 40.0198C248.354 40.2872 248.013 40.4209 247.611 40.4209C247.197 40.4209 246.85 40.2872 246.57 40.0198C246.29 39.7524 246.15 39.406 246.15 38.9806C246.15 38.5551 246.29 38.2087 246.57 37.9413C246.85 37.6618 247.197 37.522 247.611 37.522C248.013 37.522 248.354 37.6618 248.634 37.9413C248.926 38.2087 249.072 38.5551 249.072 38.9806Z" fill="black"></path>
    <path d="M257.775 35.4616C257.775 34.4771 257.55 33.7113 257.1 33.1644C256.661 32.6174 255.949 32.3439 254.963 32.3439C254.756 32.3439 254.537 32.3561 254.306 32.3804C254.087 32.3925 253.867 32.429 253.648 32.4898V37.9412C253.843 38.0749 254.099 38.2026 254.415 38.3241C254.744 38.4335 255.091 38.4882 255.456 38.4882C256.26 38.4882 256.844 38.2147 257.209 37.6677C257.587 37.1208 257.775 36.3854 257.775 35.4616ZM260.04 35.4252C260.04 36.1545 259.942 36.823 259.747 37.4307C259.565 38.0385 259.297 38.5611 258.944 38.9987C258.591 39.4363 258.147 39.7766 257.611 40.0197C257.087 40.2628 256.491 40.3844 255.821 40.3844C255.371 40.3844 254.957 40.3297 254.58 40.2203C254.202 40.1109 253.892 39.9893 253.648 39.8556V43.5568H251.439V30.9583C251.889 30.8367 252.443 30.7212 253.1 30.6118C253.758 30.5025 254.452 30.4478 255.182 30.4478C255.937 30.4478 256.613 30.5632 257.209 30.7942C257.806 31.0251 258.311 31.3594 258.725 31.7969C259.151 32.2224 259.473 32.745 259.693 33.3649C259.924 33.9727 260.04 34.6594 260.04 35.4252Z" fill="black"></path>
    <path d="M265.641 40.3662C264.983 40.3541 264.436 40.2811 263.997 40.1474C263.571 40.0137 263.23 39.8253 262.975 39.5822C262.719 39.327 262.536 39.017 262.427 38.6524C262.329 38.2756 262.281 37.8502 262.281 37.3761V26.4003L264.49 26.0356V36.9568C264.49 37.2242 264.509 37.4491 264.545 37.6314C264.594 37.8137 264.673 37.9717 264.782 38.1054C264.892 38.227 265.038 38.3242 265.221 38.3971C265.416 38.4579 265.659 38.5065 265.951 38.543L265.641 40.3662Z" fill="black"></path>
    <path d="M32.7964 21.9942C32.7964 19.697 32.271 17.9102 31.2199 16.6339C30.1973 15.3577 28.5356 14.7195 26.2347 14.7195C25.7519 14.7195 25.2406 14.7479 24.7008 14.8046C24.1895 14.8329 23.6782 14.918 23.1669 15.0599V27.7799C23.6215 28.092 24.218 28.3897 24.9564 28.6733C25.7234 28.9286 26.533 29.0562 27.3851 29.0562C29.2599 29.0562 30.6234 28.4181 31.4756 27.1418C32.3562 25.8655 32.7964 24.1496 32.7964 21.9942ZM38.0799 21.9091C38.0799 23.6108 37.8528 25.1707 37.3982 26.5888C36.9721 28.0069 36.3472 29.2264 35.5234 30.2474C34.6997 31.2684 33.6629 32.0625 32.413 32.6297C31.1916 33.197 29.7997 33.4806 28.2373 33.4806C27.1863 33.4806 26.2206 33.3529 25.3399 33.0977C24.4594 32.8424 23.735 32.5589 23.1669 32.2468V40.8829H18.0112V11.4863C19.0623 11.2027 20.3547 10.9333 21.8886 10.678C23.4225 10.4228 25.0417 10.2952 26.746 10.2952C28.5072 10.2952 30.0837 10.5646 31.4756 11.1035C32.8675 11.6423 34.0463 12.4223 35.0121 13.4433C36.0063 14.436 36.7591 15.6555 37.2704 17.1019C37.8101 18.52 38.0799 20.1224 38.0799 21.9091Z" fill="#1458E4"></path>
    <path d="M53.7474 15.4002C53.3214 15.2584 52.7248 15.1166 51.9579 14.9748C51.2194 14.8046 50.353 14.7195 49.3587 14.7195C48.7907 14.7195 48.1799 14.7763 47.5266 14.8897C46.9017 15.0031 46.4614 15.1024 46.2057 15.1875V33.0126H41.05V11.8267C42.0443 11.458 43.2799 11.1176 44.757 10.8057C46.2626 10.4653 47.9243 10.2952 49.7422 10.2952C50.0831 10.2952 50.4808 10.3235 50.9353 10.3803C51.3898 10.4086 51.8443 10.4653 52.2987 10.5504C52.7533 10.6071 53.1935 10.6922 53.6196 10.8057C54.0457 10.8908 53.4918 10.7631 53.7474 10.8482V15.4002Z" fill="#1458E4"></path>
    <path d="M63.7315 29.3965C65.3222 29.3965 66.5295 29.3114 67.3532 29.1413V23.4406C67.0692 23.3556 66.6573 23.2705 66.1176 23.1854C65.5779 23.1003 64.9814 23.0578 64.328 23.0578C63.76 23.0578 63.1776 23.1003 62.581 23.1854C62.013 23.2705 61.4875 23.4264 61.0045 23.6534C60.5501 23.8803 60.1808 24.2064 59.8967 24.6318C59.6127 25.0289 59.4706 25.5394 59.4706 26.1633C59.4706 27.3828 59.8541 28.2337 60.621 28.7159C61.388 29.1696 62.4248 29.3965 63.7315 29.3965ZM63.3054 10.2101C65.0097 10.2101 66.4443 10.4228 67.6089 10.8482C68.7735 11.2736 69.6967 11.8692 70.3784 12.635C71.0887 13.4007 71.5857 14.3367 71.8697 15.4428C72.1822 16.5205 72.3384 17.7117 72.3384 19.0163V32.5021C71.5431 32.6723 70.3358 32.8708 68.7167 33.0977C67.126 33.3529 65.3222 33.4806 63.3054 33.4806C61.9704 33.4806 60.7489 33.3529 59.641 33.0977C58.5332 32.8424 57.5817 32.4312 56.7862 31.864C56.0193 31.2967 55.4086 30.5594 54.9541 29.6518C54.528 28.7442 54.3149 27.624 54.3149 26.291C54.3149 25.0147 54.5565 23.9369 55.0393 23.0578C55.5506 22.1786 56.2323 21.4695 57.0845 20.9307C57.9367 20.3634 58.9167 19.9664 60.0245 19.7395C61.1608 19.4842 62.3396 19.3566 63.561 19.3566C64.1292 19.3566 64.7257 19.3992 65.3506 19.4842C65.9756 19.541 66.6431 19.6544 67.3532 19.8246V18.9737C67.3532 18.3781 67.2822 17.8109 67.1402 17.2721C66.9982 16.7332 66.7426 16.2653 66.3732 15.8682C66.0323 15.4428 65.5636 15.1166 64.9671 14.8897C64.3991 14.6628 63.6747 14.5494 62.7941 14.5494C61.601 14.5494 60.5075 14.6345 59.5132 14.8046C58.5191 14.9748 57.7095 15.1733 57.0845 15.4002V11.0609C57.7379 10.834 58.0504 10.7773 59.3002 10.5504C60.5501 10.3235 61.8852 10.2101 63.3054 10.2101Z" fill="#1458E4"></path>
    <path d="M75.073 21.9091C75.073 20.2642 75.3286 18.7327 75.84 17.3146C76.3513 15.8682 77.0756 14.6202 78.013 13.5709C78.9789 12.5216 80.1434 11.6991 81.5069 11.1035C82.8704 10.5079 84.4043 10.2101 86.1086 10.2101C88.2107 10.2101 90.1991 10.593 92.0739 11.3587L90.966 15.5704C90.3695 15.3151 89.6878 15.1024 88.9208 14.9322C88.1824 14.7621 87.3869 14.677 86.5347 14.677C84.518 14.677 82.9841 15.3151 81.933 16.5914C80.882 17.8393 80.3565 19.6119 80.3565 21.9091C80.3565 24.1213 80.8537 25.8798 81.8478 27.1844C82.842 28.4606 84.518 29.0987 86.8756 29.0987C87.7563 29.0987 88.6226 29.0137 89.4747 28.8435C90.3269 28.6733 91.0655 28.4606 91.6904 28.2054L92.4147 32.4596C91.8467 32.7431 90.9803 32.9984 89.8156 33.2253C88.6794 33.4523 87.5006 33.5657 86.2791 33.5657C84.3759 33.5657 82.7142 33.2821 81.2939 32.7148C79.902 32.1192 78.7373 31.3109 77.8 30.2899C76.891 29.2406 76.2093 28.0069 75.7547 26.5888C75.3003 25.1423 75.073 23.5825 75.073 21.9091Z" fill="#1458E4"></path>
    <path d="M112.342 32.3319C111.348 32.5871 110.055 32.8424 108.465 33.0976C106.874 33.3812 105.127 33.523 103.224 33.523C101.434 33.523 99.9287 33.2678 98.7071 32.7573C97.5141 32.2468 96.5483 31.5378 95.8097 30.6302C95.0996 29.7226 94.5883 28.6449 94.2758 27.397C93.9634 26.1207 93.8071 24.7311 93.8071 23.2279V10.7631H98.9628V22.4196C98.9628 24.8019 99.3036 26.5036 99.9854 27.5246C100.696 28.5456 101.917 29.0561 103.65 29.0561C104.275 29.0561 104.928 29.0278 105.61 28.971C106.32 28.9143 106.845 28.8434 107.186 28.7583V10.7631H112.342V32.3319Z" fill="#1458E4"></path>
    <path d="M113.706 40.9253C113.337 40.9253 112.825 40.8828 112.172 40.7977C111.49 40.741 110.894 40.6133 110.382 40.4148L111.064 36.2032C111.689 36.4017 112.442 36.501 113.322 36.501C114.515 36.501 115.353 36.1464 115.836 35.4374C116.319 34.7567 116.561 33.7215 116.561 32.3319V10.7631H121.716V32.4169C121.716 35.3098 121.02 37.4511 119.628 38.8408C118.265 40.2304 116.291 40.9253 113.706 40.9253ZM122.27 4.25413C122.27 5.21841 121.958 5.98417 121.333 6.5514C120.708 7.11863 119.969 7.40224 119.117 7.40224C118.237 7.40224 117.484 7.11863 116.859 6.5514C116.234 5.98417 115.921 5.21841 115.921 4.25413C115.921 3.26148 116.234 2.48155 116.859 1.91432C117.484 1.34709 118.237 1.06348 119.117 1.06348C119.969 1.06348 120.708 1.34709 121.333 1.91432C121.958 2.48155 122.27 3.26148 122.27 4.25413Z" fill="#1458E4"></path>
    <path d="M14.7488 19.1865C14.7488 20.1507 14.4363 20.9165 13.8114 21.4838C13.1866 22.0509 12.448 22.3346 11.5958 22.3346C10.7152 22.3346 9.96246 22.0509 9.33754 21.4838C8.71261 20.9165 8.40015 20.1507 8.40015 19.1865C8.40015 18.1938 8.71261 17.4138 9.33754 16.8467C9.96246 16.2794 10.7152 15.9958 11.5958 15.9958C12.448 15.9958 13.1866 16.2794 13.8114 16.8467C14.4363 17.4138 14.7488 18.1938 14.7488 19.1865Z" fill="black"></path>
    <path d="M142.319 14.3791C141.751 14.9747 140.998 15.8113 140.061 16.8891C139.152 17.9669 138.172 19.1722 137.121 20.5052C136.07 21.8098 135.005 23.1853 133.925 24.6318C132.875 26.0499 131.923 27.4112 131.07 28.7158H142.575V33.0125H124.85V29.8219C125.474 28.6875 126.256 27.4538 127.193 26.1207C128.13 24.7877 129.096 23.4548 130.09 22.1218C131.085 20.7604 132.065 19.47 133.03 18.2505C134.025 17.031 134.905 15.9674 135.672 15.0598H125.404V10.7631H142.319V14.3791Z" fill="black"></path>
    <path d="M148.318 21.8241C148.318 24.093 148.858 25.8798 149.938 27.1843C151.017 28.4606 152.509 29.0987 154.411 29.0987C155.236 29.0987 155.931 29.0704 156.499 29.0137C157.096 28.9286 157.579 28.8435 157.948 28.7584V15.9958C157.494 15.6838 156.883 15.4002 156.116 15.145C155.377 14.8614 154.582 14.7195 153.73 14.7195C151.855 14.7195 150.477 15.3577 149.597 16.6339C148.744 17.9102 148.318 19.6402 148.318 21.8241ZM163.104 32.3319C162.081 32.6439 160.788 32.9275 159.226 33.1828C157.692 33.438 156.073 33.5657 154.369 33.5657C152.607 33.5657 151.031 33.2962 149.639 32.7574C148.248 32.2185 147.055 31.4528 146.06 30.4601C145.095 29.4391 144.341 28.2196 143.802 26.8015C143.291 25.355 143.035 23.7384 143.035 21.9517C143.035 20.1932 143.248 18.6051 143.674 17.187C144.128 15.7405 144.782 14.5068 145.634 13.4858C146.486 12.4648 147.523 11.6849 148.744 11.146C149.965 10.5788 151.372 10.2952 152.963 10.2952C154.043 10.2952 154.993 10.4228 155.818 10.678C156.642 10.9333 157.351 11.2169 157.948 11.5289V0.850839L163.104 0V32.3319Z" fill="black"></path>
    <path d="M175.148 29.3965C176.74 29.3965 177.947 29.3114 178.77 29.1413V23.4406C178.487 23.3556 178.075 23.2705 177.535 23.1854C176.995 23.1003 176.399 23.0578 175.745 23.0578C175.178 23.0578 174.595 23.1003 173.998 23.1854C173.431 23.2705 172.905 23.4264 172.421 23.6534C171.967 23.8803 171.599 24.2064 171.314 24.6318C171.03 25.0289 170.888 25.5394 170.888 26.1633C170.888 27.3828 171.271 28.2337 172.038 28.7159C172.805 29.1696 173.842 29.3965 175.148 29.3965ZM174.722 10.2101C176.427 10.2101 177.862 10.4228 179.026 10.8482C180.191 11.2736 181.114 11.8692 181.795 12.635C182.506 13.4007 183.003 14.3367 183.287 15.4428C183.6 16.5205 183.755 17.7117 183.755 19.0163V32.5021C182.96 32.6723 181.753 32.8708 180.134 33.0977C178.544 33.3529 176.74 33.4806 174.722 33.4806C173.388 33.4806 172.166 33.3529 171.058 33.0977C169.95 32.8424 168.999 32.4312 168.203 31.864C167.436 31.2967 166.826 30.5594 166.371 29.6518C165.945 28.7442 165.732 27.624 165.732 26.291C165.732 25.0147 165.974 23.9369 166.456 23.0578C166.968 22.1786 167.649 21.4695 168.501 20.9307C169.354 20.3634 170.334 19.9664 171.441 19.7395C172.579 19.4842 173.757 19.3566 174.978 19.3566C175.547 19.3566 176.143 19.3992 176.768 19.4842C177.393 19.541 178.06 19.6544 178.77 19.8246V18.9737C178.77 18.3781 178.7 17.8109 178.557 17.2721C178.416 16.7332 178.16 16.2653 177.79 15.8682C177.449 15.4428 176.981 15.1166 176.384 14.8897C175.817 14.6628 175.092 14.5494 174.211 14.5494C173.018 14.5494 171.925 14.6345 170.93 14.8046C169.937 14.9748 169.127 15.1733 168.501 15.4002V11.0731C169.155 10.8462 169.468 10.7773 170.717 10.5504C171.967 10.3235 173.303 10.2101 174.722 10.2101Z" fill="black"></path>
    <path d="M195.481 33.438C193.947 33.4097 192.669 33.2395 191.647 32.9275C190.652 32.6155 189.857 32.176 189.26 31.6087C188.664 31.0131 188.238 30.2899 187.982 29.4391C187.755 28.5599 187.641 27.5672 187.641 26.4611V0.850839L192.797 0V25.4827C192.797 26.1066 192.84 26.6313 192.925 27.0567C193.038 27.4821 193.223 27.8508 193.479 28.1628C193.734 28.4464 194.075 28.6733 194.501 28.8435C194.955 28.9853 194.783 28.9407 195.481 29.0015V33.438Z" fill="black"></path>
    <path d="M198.032 11.4863C199.026 11.2027 200.319 10.9333 201.909 10.678C203.5 10.4228 205.262 10.2952 207.193 10.2952C209.011 10.2952 210.531 10.5504 211.752 11.0609C212.974 11.5431 213.939 12.2379 214.649 13.1455C215.388 14.0246 215.899 15.1024 216.183 16.3787C216.496 17.6266 216.652 19.0021 216.652 20.5053V33.0126H211.496V21.3136C211.496 20.1224 211.411 19.1156 211.24 18.2931C211.099 17.4422 210.844 16.7616 210.473 16.251C210.133 15.7122 209.651 15.3293 209.025 15.1024C208.428 14.8472 207.691 14.7195 206.809 14.7195C206.157 14.7195 205.475 14.7621 204.764 14.8472C204.054 14.9322 203.528 15.0031 203.187 15.0599V33.0126H198.032V11.4863Z" fill="black"></path>
    <path d="M225.811 33.0127H220.656V10.7632H225.811V33.0127ZM226.365 4.25425C226.365 5.21853 226.052 5.98429 225.428 6.55152C224.803 7.11875 224.064 7.40236 223.212 7.40236C222.332 7.40236 221.579 7.11875 220.954 6.55152C220.329 5.98429 220.017 5.21853 220.017 4.25425C220.017 3.2616 220.329 2.48167 220.954 1.91444C221.579 1.34721 222.332 1.0636 223.212 1.0636C224.064 1.0636 224.803 1.34721 225.428 1.91444C226.052 2.48167 226.365 3.2616 226.365 4.25425Z" fill="black"></path>
    <path d="M228.81 21.9942C228.81 20.0373 229.094 18.3214 229.662 16.8466C230.259 15.3719 231.04 14.1523 232.006 13.188C232.971 12.1953 234.079 11.458 235.329 10.9758C236.579 10.4653 237.858 10.2101 239.164 10.2101C242.232 10.2101 244.618 11.1602 246.322 13.0604C248.055 14.9606 248.921 17.7968 248.921 21.5688C248.921 21.8524 248.907 22.1786 248.879 22.5473C248.879 22.8876 248.864 23.1996 248.836 23.4832H234.136C234.279 25.27 234.903 26.6596 236.011 27.6523C237.147 28.6166 238.78 29.0987 240.911 29.0987C242.161 29.0987 243.297 28.9853 244.32 28.7584C245.37 28.5315 246.194 28.2904 246.791 28.0352L247.473 32.2469C247.189 32.3887 246.791 32.5446 246.28 32.7148C245.796 32.8567 245.229 32.9843 244.575 33.0977C243.951 33.2395 243.269 33.3529 242.53 33.438C241.791 33.5231 241.039 33.5657 240.272 33.5657C238.312 33.5657 236.607 33.2821 235.159 32.7148C233.71 32.1192 232.517 31.3109 231.58 30.2899C230.642 29.2406 229.946 28.021 229.492 26.6313C229.038 25.2132 228.81 23.6676 228.81 21.9942ZM243.766 19.697C243.766 18.988 243.666 18.3214 243.467 17.6975C243.269 17.0451 242.971 16.4921 242.573 16.0383C242.204 15.5562 241.735 15.1875 241.167 14.9322C240.627 14.6487 239.974 14.5068 239.207 14.5068C238.412 14.5068 237.715 14.6628 237.119 14.9748C236.522 15.2584 236.011 15.6412 235.585 16.1234C235.187 16.6056 234.875 17.1587 234.647 17.7826C234.42 18.4065 234.264 19.0446 234.179 19.697H243.766Z" fill="black"></path>
  </g>
  <defs>
    <clipPath id="clip0">
      <rect width="266" height="43.636" fill="white"></rect>
    </clipPath>
  </defs>
</svg>
